<svg width="43" height="43" viewBox="0 0 43 43" fill="none" xmlns="http://www.w3.org/2000/svg">
<circle cx="21.5" cy="21.5" r="20.5" stroke="#D9D9D9" stroke-width="2"/>
<path d="M29.8334 30.875V28.7917C29.8334 27.6866 29.3944 26.6268 28.613 25.8454C27.8316 25.064 26.7718 24.625 25.6667 24.625H17.3334C16.2283 24.625 15.1685 25.064 14.3871 25.8454C13.6057 26.6268 13.1667 27.6866 13.1667 28.7917V30.875M25.6667 16.2917C25.6667 18.5929 23.8013 20.4583 21.5001 20.4583C19.1989 20.4583 17.3334 18.5929 17.3334 16.2917C17.3334 13.9905 19.1989 12.125 21.5001 12.125C23.8013 12.125 25.6667 13.9905 25.6667 16.2917Z" stroke="white" stroke-width="3" stroke-linecap="round" stroke-linejoin="round"/>
</svg>
